<?xml version="1.0" standalone="no"?>
<!DOCTYPE svg PUBLIC "-//W3C//DTD SVG 20010904//EN"
 "http://www.w3.org/TR/2001/REC-SVG-20010904/DTD/svg10.dtd">
<svg version="1.0" xmlns="http://www.w3.org/2000/svg"
 width="124.000000pt" height="124.000000pt" viewBox="0 0 124.000000 124.000000"
 preserveAspectRatio="xMidYMid meet">

<g transform="translate(0.000000,124.000000) scale(0.100000,-0.100000)"
fill="#000000" stroke="none">
<path d="M0 620 l0 -620 620 0 620 0 0 620 0 620 -620 0 -620 0 0 -620z m705
565 c47 -25 85 -44 85 -41 0 3 12 -6 27 -20 14 -13 24 -25 22 -27 -2 -1 -16
-9 -30 -17 -124 -70 -188 -113 -182 -122 3 -7 1 -8 -6 -4 -18 12 -81 -32 -75
-52 5 -14 4 -14 -4 -3 -8 12 -15 11 -44 -7 -18 -11 -66 -39 -105 -62 l-73 -41
0 -78 c0 -43 3 -119 6 -169 l7 -92 56 -32 c30 -18 67 -40 82 -49 15 -8 40 -24
56 -35 15 -10 44 -26 63 -36 32 -15 36 -15 60 2 14 9 57 34 95 55 39 20 77 42
85 49 8 6 27 18 43 26 27 13 27 14 29 119 1 58 2 122 3 141 1 19 -1 41 -4 47
-7 14 -12 12 -186 -87 -16 -10 -29 -22 -28 -27 1 -8 -13 -11 -59 -14 -9 0 -62
29 -118 65 -56 37 -105 64 -109 62 -3 -3 -7 4 -7 15 0 10 6 19 14 19 7 0 10 4
7 10 -4 6 1 7 11 3 12 -4 15 -3 10 5 -4 8 -2 10 7 6 8 -3 30 5 49 18 18 13 56
34 83 48 28 14 52 28 55 31 3 4 24 17 47 29 24 12 40 27 36 33 -3 6 -1 7 6 3
6 -4 39 10 74 31 107 65 167 91 167 73 0 -9 156 -100 171 -100 11 0 10 18 11
-220 1 -307 -3 -451 -14 -444 -5 3 -27 -6 -48 -20 -22 -14 -42 -26 -46 -26 -3
0 -54 -29 -113 -64 -58 -35 -149 -89 -201 -119 l-95 -55 -75 40 c-41 22 -94
52 -117 65 -24 14 -43 21 -43 17 0 -4 -6 -1 -12 8 -7 9 -40 31 -73 48 -73 40
-97 53 -155 89 l-45 27 -1 300 c-1 164 0 307 3 316 3 14 169 118 188 118 3 0
11 5 18 10 20 17 229 139 248 145 11 4 19 10 19 15 0 5 8 11 18 13 9 3 18 5
20 6 1 0 41 -19 87 -44z m92 -152 c1 -24 0 -25 -6 -8 -7 17 -6 35 2 35 2 0 3
-12 4 -27z m380 -115 c-3 -8 -6 -5 -6 6 -1 11 2 17 5 13 3 -3 4 -12 1 -19z
m-694 -85 c-7 -2 -19 -2 -25 0 -7 3 -2 5 12 5 14 0 19 -2 13 -5z m307 -167 c0
-2 -7 -7 -16 -10 -8 -3 -12 -2 -9 4 6 10 25 14 25 6z m100 -200 c0 -3 -4 -8
-10 -11 -5 -3 -10 -1 -10 4 0 6 5 11 10 11 6 0 10 -2 10 -4z m-140 -86 c0 -5
-4 -10 -10 -10 -5 0 -10 5 -10 10 0 6 5 10 10 10 6 0 10 -4 10 -10z m-639 -97
c13 -15 12 -15 -8 -4 -24 12 -29 21 -14 21 5 0 15 -7 22 -17z m579 -263 c0 -5
-5 -10 -11 -10 -5 0 -7 5 -4 10 3 6 8 10 11 10 2 0 4 -4 4 -10z"/>
</g>
</svg>
